PathFileType	4	(X/Y/Z)	pose_F01_0-83.trc
DataRate	CameraRate	NumFrames	NumMarkers	Units	OrigDataRate	OrigDataStartFrame	OrigNumFrames
30	30	11	21	m	30	41	83
Frame#	Time	CHip			RHip			RKnee			RAnkle			RBigToe			RSmallToe			RHeel			LHip			LKnee			LAnkle			LBigToe			LSmallToe			LHeel			Neck			Nose			RShoulder			RElbow			RWrist			LShoulder			LElbow			LWrist			
		X1	Y1	Z1	X2	Y2	Z2	X3	Y3	Z3	X4	Y4	Z4	X5	Y5	Z5	X6	Y6	Z6	X7	Y7	Z7	X8	Y8	Z8	X9	Y9	Z9	X10	Y10	Z10	X11	Y11	Z11	X12	Y12	Z12	X13	Y13	Z13	X14	Y14	Z14	X15	Y15	Z15	X16	Y16	Z16	X17	Y17	Z17	X18	Y18	Z18	X19	Y19	Z19	X20	Y20	Z20	X21	Y21	Z21	
41	1.3666666666666667	-0.2554094211327877	1.828124103120629	-0.6009757048750127	-0.2656603519289387	1.826780505438075	-0.5342612514505372	-0.2527965491659693	1.6739183738579753	-0.4113090556152132													-0.2450860023114515	1.8312116446839	-0.6667191268957917	-0.23187099092732527	1.6928725594294642	-0.6394091170467422				-0.35335769709935605	1.4831912087162533	-0.9785916171265376							-0.23727447160828893	1.98623824702641	-0.6362655737473354	-0.20719853901810065	2.037583764237263	-0.6500707723120962	-0.24873142518078312	1.9820194395346542	-0.5451478683143212	-0.23624895439146978	1.92748393664099	-0.48358867771905983	-0.201473726207274	1.8802020862599744	-0.4311517895415604	-0.2214202933600859	1.9921329570617345	-0.7291846480476224	-1.1940559466690923	1.829695035588839	0.22393113396432485	-0.197693404550805	1.9740788541859347	-0.7108018147457325
42	1.4	-0.2546322965316763	1.8326113707353	-0.606862995740025	-0.26502693603579713	1.8278974344967247	-0.539902552750307	-0.2527965491659693	1.6739183738579753	-0.4113090556152132													-0.24285188378946046	1.8329121809763775	-0.6732978384384262	-0.23187099092732527	1.6928725594294642	-0.6394091170467422				-0.35335769709935605	1.4831912087162533	-0.9785916171265376							-0.2378725719117505	1.9860806027107305	-0.6478289558238318	-0.20689409687856558	2.035394052220433	-0.6580518670470047	-0.2496233976337193	1.981288458410784	-0.5569001206944895	-0.2364666212380243	1.9246704833547703	-0.49202265158211855	-0.1978367169692415	1.8748005023803092	-0.4525134096376823	-0.22003650656726145	1.9926596382548591	-0.7346449834620348	-1.1860997035247869	1.827188809980883	0.20478612129944296	-0.1938548580249799	1.9613968952589569	-0.7235986482702423
43	1.4333333333333333	-0.2551668355281541	1.827546038735753	-0.6182919041657015	-0.2626915613468963	1.825505679846068	-0.5505075703499711	-0.2527965491659693	1.6739183738579753	-0.4113090556152132													-0.2433633749606999	1.829432861240397	-0.6846216460980387	-0.23187099092732527	1.6928725594294642	-0.6394091170467422				-0.35335769709935605	1.4831912087162533	-0.9785916171265376							-0.23555535154841484	1.9824149509078173	-0.6583589775441554	-0.20434528662472007	2.0336579385921496	-0.668618690678404	-0.24649557077747816	1.9764709119219523	-0.5722198228580783	-0.2354294569104999	1.9137802458640385	-0.5043960147262861	-0.20117089000880864	1.8603436056493907	-0.4690217083752946	-0.22046991535213756	1.9898258658390036	-0.7459178530539496	-1.1456193160577415	1.8279179015263622	0.13864076964440586	-0.19724206108277695	1.9735345520464393	-0.7298700487051083
44	1.4666666666666666	-0.25767324299373273	1.8268695713790502	-0.6366573952504627	-0.2666511409166776	1.8239681646270776	-0.5721542052507941	-0.2527965491659693	1.6739183738579753	-0.4113090556152132													-0.24760906284485804	1.8291763404201913	-0.7008771719219964	-0.23187099092732527	1.6928725594294642	-0.6394091170467422				-0.35335769709935605	1.4831912087162533	-0.9785916171265376							-0.23611436272388503	1.9765132757412418	-0.6776445920009788	-0.20660691901332917	2.029221996064197	-0.6855497579729316	-0.24762768654043987	1.9696996564475968	-0.5834186382371184	-0.23509554271716376	1.9032786143822915	-0.5259181577313012	-0.1994619772342018	1.8447918714418088	-0.49560052305802427	-0.222856967234925	1.9825618688337416	-0.7628889743286135	-1.1216247536121828	1.8258075370367195	0.09936701699140202	-0.19858335091991058	1.9744523244849321	-0.735741979155077
45	1.5	-0.25721837629735383	1.827274093633469	-0.6419102679066739	-0.2673490910865143	1.8222572699380402	-0.5838147513862082	-0.2527965491659693	1.6739183738579753	-0.4113090556152132													-0.2470582222026914	1.8291579829181681	-0.7060692087044841	-0.23187099092732527	1.6928725594294642	-0.6394091170467422				-0.35335769709935605	1.4831912087162533	-0.9785916171265376							-0.23369031518213762	1.9742143691522	-0.6881950802435962	-0.20433941048793838	2.0217243782237797	-0.6953243065233577	-0.24714225869071343	1.9679477403220094	-0.5997143051792384	-0.23818706007631946	1.8919363155038427	-0.5424437420554931	-0.20101974948726056	1.8293521928536185	-0.5267880117970671	-0.2202110670430519	1.979160810425053	-0.7733828143287493	-1.1158920294122958	1.818875145555118	0.08919403436656596	-0.19985587055214207	1.963983024866188	-0.7581109626784244
46	1.5333333333333334	-0.25676350960097494	1.8276786158878882	-0.647163140562885	-0.2667753755826295	1.8231997428119584	-0.5880647578397461	-0.2527965491659693	1.6739183738579753	-0.4113090556152132													-0.24650738156052476	1.8291396254161452	-0.7112612454869718	-0.23187099092732527	1.6928725594294642	-0.6394091170467422				-0.35335769709935605	1.4831912087162533	-0.9785916171265376							-0.23323328459423256	1.9713587458146453	-0.6960809462195245	-0.20639796349300582	2.0196685091625057	-0.7126328393654198	-0.24480875821466455	1.9666431883932822	-0.610167409521659	-0.24565268896747725	1.8907162876885706	-0.5506027028049808	-0.20026188311167495	1.8263850044970842	-0.5618881836805683	-0.22050716962318048	1.9771541771766088	-0.7844973970553676	-1.0955901920291884	1.8152293805644406	0.058234382267692925	-0.1991540625829394	1.962725508576124	-0.7659920377882937
47	1.5666666666666667	-0.25630864290459604	1.828083138142307	-0.6524160132190963	-0.2662016600787447	1.8241422156858766	-0.592314764293284	-0.2527965491659693	1.6739183738579753	-0.4113090556152132													-0.24595654091835814	1.829121267914122	-0.7164532822694595	-0.23187099092732527	1.6928725594294642	-0.6394091170467422				-0.35335769709935605	1.4831912087162533	-0.9785916171265376							-0.23574009073317964	1.9742764345233637	-0.7056702651209786	-0.20357850012892814	2.022151665134994	-0.7231226185877404	-0.24660132439697757	1.9692712595943331	-0.6167516998895954	-0.25387145736924277	1.8932485241510275	-0.5594686445106393	-0.20084340290615832	1.8452425059457809	-0.6060255365199034	-0.2207066989476916	1.9773677946631636	-0.7957880909532299	-1.0899410375161072	1.8145788379539256	0.04802835651232504	-0.20050369155550618	1.9615998356584248	-0.7716434881393665
48	1.6	-0.2558537762082171	1.828487660396726	-0.6576688858753075	-0.26562794457485983	1.8250846885597949	-0.596564770746822	-0.2527965491659693	1.6739183738579753	-0.4113090556152132													-0.24540570027619152	1.829102910412099	-0.7216453190519472	-0.23187099092732527	1.6928725594294642	-0.6394091170467422				-0.35335769709935605	1.4831912087162533	-0.9785916171265376							-0.23531468999077104	1.9766058812474798	-0.7141506920599732	-0.2043180526209725	2.02638142704264	-0.7269363409481154	-0.24748754521364838	1.9729942658830115	-0.620694674050687	-0.2514875804728919	1.8981066092839636	-0.5623614242586653	-0.20202071701740706	1.8627688842258243	-0.6150116194777119	-0.21905139383398906	1.9796778867645124	-0.8010174545590913	-1.084442204359848	1.8141710504661854	0.032777347141371815	-0.20080707407879395	1.9666856627370575	-0.7839067514294317
49	1.6333333333333333	-0.2553989095118382	1.8288921826511448	-0.6629217585315187	-0.26505422907097503	1.8260271614337131	-0.6008147772003599	-0.2527965491659693	1.6739183738579753	-0.4113090556152132													-0.2448548596340249	1.8290845529100759	-0.7268373558344349	-0.23187099092732527	1.6928725594294642	-0.6394091170467422				-0.35335769709935605	1.4831912087162533	-0.9785916171265376							-0.23513796729928874	1.9800522647300165	-0.7145999406868622	-0.20512813693189186	2.031987679516586	-0.7308889565709975	-0.2481612614142769	1.9779459687706462	-0.6240112356265386	-0.25357385118395215	1.9064888354938847	-0.5613329990658764	-0.20022148958220168	1.872843192644008	-0.6096936030929628	-0.21951136726545045	1.984482590649563	-0.8043378444389772	-1.084331804741483	1.8160423171206537	0.02809884995105813	-0.20064243285815994	1.9711584103308355	-0.7846016354767837
50	1.6666666666666667	-0.2549440428154593	1.829296704905564	-0.6681746311877298	-0.26448051356709024	1.8269696343076314	-0.6050647836538978	-0.2527965491659693	1.6739183738579753	-0.4113090556152132													-0.24430401899185825	1.829066195408053	-0.7320293926169226	-0.23187099092732527	1.6928725594294642	-0.6394091170467422				-0.35335769709935605	1.4831912087162533	-0.9785916171265376							-0.23492508325334824	1.984021318074825	-0.7149192728852339	-0.20725079463518245	2.0357287484766076	-0.7290003049524695	-0.24806692608420466	1.9806661177778062	-0.6243981355789546	-0.2523709572015127	1.911830302304188	-0.5674053393301377	-0.20225212943185344	1.8803906250876754	-0.5996092352871404	-0.2192189343367453	1.9894483892747032	-0.804504768976448	-1.0837017048868902	1.8183317255938105	0.02277525183603788	-0.19859409991699495	1.9734113625386773	-0.7874557519578723
51	1.7	-0.2544891761190804	1.8297012271599828	-0.673427503843941	-0.26390679806320544	1.8279121071815496	-0.6093147901074357	-0.2527965491659693	1.6739183738579753	-0.4113090556152132													-0.24375317834969162	1.8290478379060298	-0.7372214293994103	-0.23187099092732527	1.6928725594294642	-0.6394091170467422				-0.35335769709935605	1.4831912087162533	-0.9785916171265376							-0.23792390708570446	1.984132655224746	-0.7158937753580061	-0.2080683889386562	2.0382055626204094	-0.7322442908752921	-0.25121128516183244	1.9824139656649447	-0.6257517796959331	-0.2544593586153152	1.916273134654669	-0.5659819341629547	-0.20601797687669612	1.8880285801117107	-0.5842637681773913	-0.22017928385680083	1.9883931900973004	-0.807685952097016	-1.0832407052698692	1.818235138583913	0.016792368520997573	-0.20111462105135272	1.9725993683287228	-0.7964420382157184
